<svg width="1363" height="163" viewBox="0 0 1363 163" fill="none" xmlns="http://www.w3.org/2000/svg">
<path d="M0 15C0 6.71573 6.71573 0 15 0H37V163H15C6.71573 163 0 156.284 0 148V15Z" fill="#424242"/>
<rect width="1097" height="163" transform="translate(37)" fill="#F0F0F0"/>
<path d="M101.906 53.9219L94.3945 51.2383V48.0859L104.602 52.375V54.6367L101.906 53.9219ZM94.3945 56.1719L101.918 53.4297L104.602 52.7852V55.0352L94.3945 59.3242V56.1719ZM124.277 50.8867V53.6289H115.371V50.8867H124.277ZM116.414 43.9375V61H112.898V43.9375H116.414ZM126.785 43.9375V61H123.281V43.9375H126.785ZM135.469 61.2344C134.484 61.2344 133.602 61.0781 132.82 60.7656C132.039 60.4453 131.375 60.0039 130.828 59.4414C130.289 58.8789 129.875 58.2266 129.586 57.4844C129.297 56.7344 129.152 55.9375 129.152 55.0938V54.625C129.152 53.6641 129.289 52.7852 129.562 51.9883C129.836 51.1914 130.227 50.5 130.734 49.9141C131.25 49.3281 131.875 48.8789 132.609 48.5664C133.344 48.2461 134.172 48.0859 135.094 48.0859C135.992 48.0859 136.789 48.2344 137.484 48.5312C138.18 48.8281 138.762 49.25 139.23 49.7969C139.707 50.3438 140.066 51 140.309 51.7656C140.551 52.5234 140.672 53.3672 140.672 54.2969V55.7031H130.594V53.4531H137.355V53.1953C137.355 52.7266 137.27 52.3086 137.098 51.9414C136.934 51.5664 136.684 51.2695 136.348 51.0508C136.012 50.832 135.582 50.7227 135.059 50.7227C134.613 50.7227 134.23 50.8203 133.91 51.0156C133.59 51.2109 133.328 51.4844 133.125 51.8359C132.93 52.1875 132.781 52.6016 132.68 53.0781C132.586 53.5469 132.539 54.0625 132.539 54.625V55.0938C132.539 55.6016 132.609 56.0703 132.75 56.5C132.898 56.9297 133.105 57.3008 133.371 57.6133C133.645 57.9258 133.973 58.168 134.355 58.3398C134.746 58.5117 135.188 58.5977 135.68 58.5977C136.289 58.5977 136.855 58.4805 137.379 58.2461C137.91 58.0039 138.367 57.6406 138.75 57.1562L140.391 58.9375C140.125 59.3203 139.762 59.6875 139.301 60.0391C138.848 60.3906 138.301 60.6797 137.66 60.9062C137.02 61.125 136.289 61.2344 135.469 61.2344ZM149.438 58.1406V52.4922C149.438 52.0859 149.371 51.7383 149.238 51.4492C149.105 51.1523 148.898 50.9219 148.617 50.7578C148.344 50.5938 147.988 50.5117 147.551 50.5117C147.176 50.5117 146.852 50.5781 146.578 50.7109C146.305 50.8359 146.094 51.0195 145.945 51.2617C145.797 51.4961 145.723 51.7734 145.723 52.0938H142.348C142.348 51.5547 142.473 51.043 142.723 50.5586C142.973 50.0742 143.336 49.6484 143.812 49.2812C144.289 48.9062 144.855 48.6133 145.512 48.4023C146.176 48.1914 146.918 48.0859 147.738 48.0859C148.723 48.0859 149.598 48.25 150.363 48.5781C151.129 48.9062 151.73 49.3984 152.168 50.0547C152.613 50.7109 152.836 51.5312 152.836 52.5156V57.9414C152.836 58.6367 152.879 59.207 152.965 59.6523C153.051 60.0898 153.176 60.4727 153.34 60.8008V61H149.93C149.766 60.6562 149.641 60.2266 149.555 59.7109C149.477 59.1875 149.438 58.6641 149.438 58.1406ZM149.883 53.2773L149.906 55.1875H148.02C147.574 55.1875 147.188 55.2383 146.859 55.3398C146.531 55.4414 146.262 55.5859 146.051 55.7734C145.84 55.9531 145.684 56.1641 145.582 56.4062C145.488 56.6484 145.441 56.9141 145.441 57.2031C145.441 57.4922 145.508 57.7539 145.641 57.9883C145.773 58.2148 145.965 58.3945 146.215 58.5273C146.465 58.6523 146.758 58.7148 147.094 58.7148C147.602 58.7148 148.043 58.6133 148.418 58.4102C148.793 58.207 149.082 57.957 149.285 57.6602C149.496 57.3633 149.605 57.082 149.613 56.8164L150.504 58.2461C150.379 58.5664 150.207 58.8984 149.988 59.2422C149.777 59.5859 149.508 59.9102 149.18 60.2148C148.852 60.5117 148.457 60.7578 147.996 60.9531C147.535 61.1406 146.988 61.2344 146.355 61.2344C145.551 61.2344 144.82 61.0742 144.164 60.7539C143.516 60.4258 143 59.9766 142.617 59.4062C142.242 58.8281 142.055 58.1719 142.055 57.4375C142.055 56.7734 142.18 56.1836 142.43 55.668C142.68 55.1523 143.047 54.7188 143.531 54.3672C144.023 54.0078 144.637 53.7383 145.371 53.5586C146.105 53.3711 146.957 53.2773 147.926 53.2773H149.883ZM158.812 51.0859V61H155.438V48.3203H158.613L158.812 51.0859ZM162.633 48.2383L162.574 51.3672C162.41 51.3438 162.211 51.3242 161.977 51.3086C161.75 51.2852 161.543 51.2734 161.355 51.2734C160.879 51.2734 160.465 51.3359 160.113 51.4609C159.77 51.5781 159.48 51.7539 159.246 51.9883C159.02 52.2227 158.848 52.5078 158.73 52.8438C158.621 53.1797 158.559 53.5625 158.543 53.9922L157.863 53.7812C157.863 52.9609 157.945 52.207 158.109 51.5195C158.273 50.8242 158.512 50.2188 158.824 49.7031C159.145 49.1875 159.535 48.7891 159.996 48.5078C160.457 48.2266 160.984 48.0859 161.578 48.0859C161.766 48.0859 161.957 48.1016 162.152 48.1328C162.348 48.1562 162.508 48.1914 162.633 48.2383ZM166.781 43.9375L170.344 51.7188L173.906 43.9375H177.738L172.125 54.7891V61H168.562V54.7891L162.938 43.9375H166.781ZM177.773 54.7891V54.543C177.773 53.6133 177.906 52.7578 178.172 51.9766C178.438 51.1875 178.824 50.5039 179.332 49.9258C179.84 49.3477 180.465 48.8984 181.207 48.5781C181.949 48.25 182.801 48.0859 183.762 48.0859C184.723 48.0859 185.578 48.25 186.328 48.5781C187.078 48.8984 187.707 49.3477 188.215 49.9258C188.73 50.5039 189.121 51.1875 189.387 51.9766C189.652 52.7578 189.785 53.6133 189.785 54.543V54.7891C189.785 55.7109 189.652 56.5664 189.387 57.3555C189.121 58.1367 188.73 58.8203 188.215 59.4062C187.707 59.9844 187.082 60.4336 186.34 60.7539C185.598 61.0742 184.746 61.2344 183.785 61.2344C182.824 61.2344 181.969 61.0742 181.219 60.7539C180.477 60.4336 179.848 59.9844 179.332 59.4062C178.824 58.8203 178.438 58.1367 178.172 57.3555C177.906 56.5664 177.773 55.7109 177.773 54.7891ZM181.148 54.543V54.7891C181.148 55.3203 181.195 55.8164 181.289 56.2773C181.383 56.7383 181.531 57.1445 181.734 57.4961C181.945 57.8398 182.219 58.1094 182.555 58.3047C182.891 58.5 183.301 58.5977 183.785 58.5977C184.254 58.5977 184.656 58.5 184.992 58.3047C185.328 58.1094 185.598 57.8398 185.801 57.4961C186.004 57.1445 186.152 56.7383 186.246 56.2773C186.348 55.8164 186.398 55.3203 186.398 54.7891V54.543C186.398 54.0273 186.348 53.543 186.246 53.0898C186.152 52.6289 186 52.2227 185.789 51.8711C185.586 51.5117 185.316 51.2305 184.98 51.0273C184.645 50.8242 184.238 50.7227 183.762 50.7227C183.285 50.7227 182.879 50.8242 182.543 51.0273C182.215 51.2305 181.945 51.5117 181.734 51.8711C181.531 52.2227 181.383 52.6289 181.289 53.0898C181.195 53.543 181.148 54.0273 181.148 54.543ZM199.359 57.9648V48.3203H202.734V61H199.559L199.359 57.9648ZM199.734 55.3633L200.73 55.3398C200.73 56.1836 200.633 56.9688 200.438 57.6953C200.242 58.4141 199.949 59.0391 199.559 59.5703C199.168 60.0938 198.676 60.5039 198.082 60.8008C197.488 61.0898 196.789 61.2344 195.984 61.2344C195.367 61.2344 194.797 61.1484 194.273 60.9766C193.758 60.7969 193.312 60.5195 192.938 60.1445C192.57 59.7617 192.281 59.2734 192.07 58.6797C191.867 58.0781 191.766 57.3555 191.766 56.5117V48.3203H195.141V56.5352C195.141 56.9102 195.184 57.2266 195.27 57.4844C195.363 57.7422 195.492 57.9531 195.656 58.1172C195.82 58.2812 196.012 58.3984 196.23 58.4688C196.457 58.5391 196.707 58.5742 196.98 58.5742C197.676 58.5742 198.223 58.4336 198.621 58.1523C199.027 57.8711 199.312 57.4883 199.477 57.0039C199.648 56.5117 199.734 55.9648 199.734 55.3633Z" fill="#888888"/>
<path d="M106.688 119H99.1172L99.1641 112.672H106.688C108.25 112.672 109.57 112.297 110.648 111.547C111.742 110.797 112.57 109.68 113.133 108.195C113.711 106.695 114 104.852 114 102.664V101.188C114 99.5469 113.836 98.1094 113.508 96.875C113.195 95.625 112.727 94.5859 112.102 93.7578C111.477 92.9141 110.695 92.2812 109.758 91.8594C108.836 91.4375 107.773 91.2266 106.57 91.2266H98.9766V84.875H106.57C108.883 84.875 111 85.2734 112.922 86.0703C114.859 86.8516 116.531 87.9766 117.938 89.4453C119.359 90.8984 120.453 92.625 121.219 94.625C122 96.6094 122.391 98.8125 122.391 101.234V102.664C122.391 105.07 122 107.273 121.219 109.273C120.453 111.273 119.367 113 117.961 114.453C116.555 115.906 114.891 117.031 112.969 117.828C111.062 118.609 108.969 119 106.688 119ZM103.828 84.875V119H95.6016V84.875H103.828ZM138.586 119.469C136.523 119.469 134.68 119.148 133.055 118.508C131.43 117.852 130.055 116.953 128.93 115.812C127.82 114.672 126.969 113.359 126.375 111.875C125.797 110.391 125.508 108.82 125.508 107.164V106.273C125.508 104.414 125.766 102.695 126.281 101.117C126.797 99.5234 127.562 98.1328 128.578 96.9453C129.594 95.7578 130.867 94.8359 132.398 94.1797C133.93 93.5078 135.711 93.1719 137.742 93.1719C139.539 93.1719 141.148 93.4609 142.57 94.0391C143.992 94.6172 145.195 95.4453 146.18 96.5234C147.18 97.6016 147.938 98.9062 148.453 100.438C148.984 101.969 149.25 103.688 149.25 105.594V108.805H128.531V103.859H141.539V103.25C141.555 102.406 141.406 101.688 141.094 101.094C140.797 100.5 140.359 100.047 139.781 99.7344C139.203 99.4219 138.5 99.2656 137.672 99.2656C136.812 99.2656 136.102 99.4531 135.539 99.8281C134.992 100.203 134.562 100.719 134.25 101.375C133.953 102.016 133.742 102.758 133.617 103.602C133.492 104.445 133.43 105.336 133.43 106.273V107.164C133.43 108.102 133.555 108.953 133.805 109.719C134.07 110.484 134.445 111.141 134.93 111.688C135.43 112.219 136.023 112.633 136.711 112.93C137.414 113.227 138.211 113.375 139.102 113.375C140.18 113.375 141.242 113.172 142.289 112.766C143.336 112.359 144.234 111.688 144.984 110.75L148.57 115.016C148.055 115.75 147.32 116.461 146.367 117.148C145.43 117.836 144.305 118.398 142.992 118.836C141.68 119.258 140.211 119.469 138.586 119.469ZM160.43 99.0078V119H152.531V93.6406H159.938L160.43 99.0078ZM159.469 105.453L157.664 105.5C157.664 103.719 157.875 102.078 158.297 100.578C158.719 99.0781 159.344 97.7734 160.172 96.6641C161 95.5547 162.016 94.6953 163.219 94.0859C164.438 93.4766 165.844 93.1719 167.438 93.1719C168.547 93.1719 169.555 93.3438 170.461 93.6875C171.367 94.0156 172.148 94.5391 172.805 95.2578C173.461 95.9609 173.961 96.8828 174.305 98.0234C174.664 99.1484 174.844 100.5 174.844 102.078V119H166.945V103.086C166.945 102.008 166.82 101.195 166.57 100.648C166.336 100.102 165.992 99.7344 165.539 99.5469C165.086 99.3594 164.531 99.2656 163.875 99.2656C163.188 99.2656 162.57 99.4219 162.023 99.7344C161.477 100.047 161.008 100.484 160.617 101.047C160.242 101.594 159.953 102.242 159.75 102.992C159.562 103.742 159.469 104.562 159.469 105.453ZM173.953 105.453L171.75 105.5C171.75 103.719 171.945 102.078 172.336 100.578C172.742 99.0781 173.344 97.7734 174.141 96.6641C174.953 95.5547 175.961 94.6953 177.164 94.0859C178.367 93.4766 179.766 93.1719 181.359 93.1719C182.516 93.1719 183.578 93.3438 184.547 93.6875C185.516 94.0312 186.352 94.5859 187.055 95.3516C187.758 96.1172 188.305 97.1328 188.695 98.3984C189.086 99.6484 189.281 101.195 189.281 103.039V119H181.359V103.039C181.359 101.992 181.234 101.203 180.984 100.672C180.75 100.125 180.406 99.7578 179.953 99.5703C179.5 99.3672 178.961 99.2656 178.336 99.2656C177.586 99.2656 176.938 99.4219 176.391 99.7344C175.844 100.047 175.383 100.484 175.008 101.047C174.648 101.594 174.383 102.242 174.211 102.992C174.039 103.742 173.953 104.562 173.953 105.453ZM192.82 106.578V106.086C192.82 104.227 193.086 102.516 193.617 100.953C194.148 99.375 194.93 98.0078 195.961 96.8516C196.992 95.6953 198.266 94.7969 199.781 94.1562C201.297 93.5 203.047 93.1719 205.031 93.1719C207.031 93.1719 208.789 93.5 210.305 94.1562C211.836 94.7969 213.117 95.6953 214.148 96.8516C215.18 98.0078 215.961 99.375 216.492 100.953C217.023 102.516 217.289 104.227 217.289 106.086V106.578C217.289 108.422 217.023 110.133 216.492 111.711C215.961 113.273 215.18 114.641 214.148 115.812C213.117 116.969 211.844 117.867 210.328 118.508C208.812 119.148 207.062 119.469 205.078 119.469C203.094 119.469 201.336 119.148 199.805 118.508C198.273 117.867 196.992 116.969 195.961 115.812C194.93 114.641 194.148 113.273 193.617 111.711C193.086 110.133 192.82 108.422 192.82 106.578ZM200.719 106.086V106.578C200.719 107.531 200.789 108.422 200.93 109.25C201.07 110.078 201.305 110.805 201.633 111.43C201.961 112.039 202.406 112.516 202.969 112.859C203.531 113.203 204.234 113.375 205.078 113.375C205.906 113.375 206.594 113.203 207.141 112.859C207.703 112.516 208.148 112.039 208.477 111.43C208.805 110.805 209.039 110.078 209.18 109.25C209.32 108.422 209.391 107.531 209.391 106.578V106.086C209.391 105.164 209.32 104.297 209.18 103.484C209.039 102.656 208.805 101.93 208.477 101.305C208.148 100.664 207.703 100.164 207.141 99.8047C206.578 99.4453 205.875 99.2656 205.031 99.2656C204.203 99.2656 203.508 99.4453 202.945 99.8047C202.398 100.164 201.961 100.664 201.633 101.305C201.305 101.93 201.07 102.656 200.93 103.484C200.789 104.297 200.719 105.164 200.719 106.086Z" fill="black"/>
<path d="M1134 0H1348C1356.28 0 1363 6.71573 1363 15V148C1363 156.284 1356.28 163 1348 163H1134V0Z" fill="#ECB8C9"/>
<path d="M1280.07 47.5H1216.93L1214.5 49.9286V113.071L1216.93 115.5H1280.07L1282.5 113.071V49.9286L1280.07 47.5ZM1277.64 110.643H1233.93V100.929H1245.1C1246.56 103.843 1249.96 105.786 1253.36 105.786C1258.7 105.786 1263.07 101.414 1263.07 96.0714C1263.07 90.7286 1258.7 86.3571 1253.36 86.3571C1248.01 86.3571 1243.64 90.7286 1243.64 96.0714H1229.07V110.643H1219.36V52.3571H1229.07V63.5286C1226.16 64.9857 1224.21 68.3857 1224.21 71.7857C1224.21 77.1286 1228.59 81.5 1233.93 81.5C1239.27 81.5 1243.64 77.1286 1243.64 71.7857H1253.36C1253.36 77.1286 1257.73 81.5 1263.07 81.5C1268.41 81.5 1272.79 77.1286 1272.79 71.7857C1272.79 66.4429 1268.41 62.0714 1263.07 62.0714C1259.67 62.0714 1256.27 64.0143 1254.81 66.9286H1242.19C1240.73 64.0143 1237.33 62.0714 1233.93 62.0714V52.3571H1277.64V110.643ZM1248.5 96.0714C1248.5 93.1571 1250.44 91.2143 1253.36 91.2143C1256.27 91.2143 1258.21 93.1571 1258.21 96.0714C1258.21 98.9857 1256.27 100.929 1253.36 100.929C1250.44 100.929 1248.5 98.9857 1248.5 96.0714ZM1233.93 66.9286C1236.84 66.9286 1238.79 68.8714 1238.79 71.7857C1238.79 74.7 1236.84 76.6429 1233.93 76.6429C1231.01 76.6429 1229.07 74.7 1229.07 71.7857C1229.07 68.8714 1231.01 66.9286 1233.93 66.9286ZM1263.07 66.9286C1265.99 66.9286 1267.93 68.8714 1267.93 71.7857C1267.93 74.7 1265.99 76.6429 1263.07 76.6429C1260.16 76.6429 1258.21 74.7 1258.21 71.7857C1258.21 68.8714 1260.16 66.9286 1263.07 66.9286Z" fill="white"/>
</svg>
